<svg width="20" height="20" viewBox="0 0 20 20" fill="none" xmlns="http://www.w3.org/2000/svg">
<path d="M3.55 15.625C4.6 14.9583 5.6375 14.4542 6.6625 14.1125C7.6875 13.7708 8.8 13.6 10 13.6C11.2 13.6 12.3167 13.7708 13.35 14.1125C14.3833 14.4542 15.425 14.9583 16.475 15.625C17.2083 14.725 17.7292 13.8167 18.0375 12.9C18.3458 11.9833 18.5 11.0167 18.5 10C18.5 7.58333 17.6875 5.5625 16.0625 3.9375C14.4375 2.3125 12.4167 1.5 10 1.5C7.58333 1.5 5.5625 2.3125 3.9375 3.9375C2.3125 5.5625 1.5 7.58333 1.5 10C1.5 11.0167 1.65833 11.9833 1.975 12.9C2.29167 13.8167 2.81667 14.725 3.55 15.625ZM9.99535 10.75C9.03178 10.75 8.22083 10.4193 7.5625 9.75785C6.90417 9.09642 6.575 8.28392 6.575 7.32035C6.575 6.35678 6.90572 5.54583 7.56715 4.8875C8.22858 4.22917 9.04108 3.9 10.0047 3.9C10.9682 3.9 11.7792 4.23072 12.4375 4.89215C13.0958 5.55358 13.425 6.36608 13.425 7.32965C13.425 8.29322 13.0943 9.10417 12.4329 9.7625C11.7714 10.4208 10.9589 10.75 9.99535 10.75ZM9.98987 20C8.60411 20 7.30182 19.7375 6.083 19.2125C4.86418 18.6875 3.80398 17.9708 2.90237 17.0625C2.00079 16.1542 1.29167 15.093 0.775 13.879C0.258333 12.665 0 11.3678 0 9.9875C0 8.60718 0.2625 7.31003 0.7875 6.09602C1.3125 4.88201 2.02917 3.825 2.9375 2.925C3.84583 2.025 4.90701 1.3125 6.12103 0.7875C7.33503 0.2625 8.63218 0 10.0125 0C11.3928 0 12.69 0.2625 13.904 0.7875C15.118 1.3125 16.175 2.025 17.075 2.925C17.975 3.825 18.6875 4.88333 19.2125 6.1C19.7375 7.31667 20 8.61445 20 9.99335C20 11.3723 19.7375 12.6681 19.2125 13.8809C18.6875 15.0936 17.975 16.1542 17.075 17.0625C16.175 17.9708 15.1156 18.6875 13.8968 19.2125C12.678 19.7375 11.3757 20 9.98987 20Z" fill="#363645"/>
</svg>
